<svg width="228" height="120" viewBox="0 0 228 120" fill="none" xmlns="http://www.w3.org/2000/svg">
<path d="M1.25816 32.1858V0.719236H16.7605C20.2653 0.719236 23.3508 1.36355 26.0169 2.65218C28.683 3.91084 30.765 5.70893 32.2628 8.04645C33.7606 10.384 34.5095 13.171 34.5095 16.4076C34.5095 19.6741 33.7606 22.4911 32.2628 24.8586C30.765 27.1961 28.683 29.0092 26.0169 30.2978C23.3508 31.5565 20.2653 32.1858 16.7605 32.1858H1.25816ZM11.8626 23.9146H16.3111C17.8089 23.9146 19.112 23.6299 20.2204 23.0605C21.3587 22.4911 22.2424 21.652 22.8715 20.5432C23.5006 19.4044 23.8151 18.0258 23.8151 16.4076C23.8151 14.8193 23.5006 13.4707 22.8715 12.3619C22.2424 11.253 21.3587 10.4139 20.2204 9.84454C19.112 9.27514 17.8089 8.99045 16.3111 8.99045H11.8626V23.9146ZM35.4608 32.1858V0.719236H46.0655V32.1858H35.4608ZM59.9774 32.905C57.3412 32.905 54.7949 32.6054 52.3385 32.006C49.8821 31.4066 47.8601 30.6275 46.2724 29.6685L49.6874 21.9367C51.1852 22.8058 52.8478 23.51 54.6751 24.0494C56.5324 24.5589 58.3298 24.8136 60.0672 24.8136C61.0857 24.8136 61.8796 24.7537 62.4487 24.6338C63.0479 24.484 63.4822 24.2892 63.7518 24.0494C64.0214 23.7797 64.1562 23.4651 64.1562 23.1055C64.1562 22.5361 63.8417 22.0865 63.2126 21.7569C62.5836 21.4272 61.7448 21.1575 60.6963 20.9477C59.6778 20.708 58.5544 20.4683 57.3262 20.2285C56.098 19.9588 54.8549 19.6142 53.5967 19.1946C52.3685 18.7751 51.2302 18.2206 50.1817 17.5314C49.1632 16.8421 48.3394 15.9431 47.7103 14.8342C47.0812 13.6954 46.7667 12.2869 46.7667 10.6087C46.7667 8.6608 47.3059 6.89268 48.3843 5.30436C49.4927 3.68608 51.1253 2.39745 53.2822 1.43847C55.469 0.479491 58.18 0 61.4153 0C63.5421 0 65.6391 0.224761 67.706 0.674284C69.773 1.12381 71.6303 1.81307 73.2779 2.74209L70.0876 10.4289C68.5298 9.64975 67.0171 9.06537 65.5492 8.67578C64.1113 8.2862 62.7034 8.0914 61.3254 8.0914C60.3069 8.0914 59.4981 8.18131 58.8989 8.36112C58.2998 8.54093 57.8655 8.78067 57.5958 9.08035C57.3562 9.38003 57.2364 9.70968 57.2364 10.0693C57.2364 10.6087 57.5509 11.0433 58.18 11.3729C58.8091 11.6726 59.6329 11.9273 60.6514 12.1371C61.6998 12.3469 62.8382 12.5716 64.0664 12.8114C65.3245 13.0511 66.5677 13.3808 67.7959 13.8003C69.0241 14.2199 70.1475 14.7743 71.166 15.4636C72.2144 16.1528 73.0532 17.0519 73.6823 18.1607C74.3114 19.2695 74.6259 20.6481 74.6259 22.2963C74.6259 24.2143 74.0717 25.9824 72.9634 27.6007C71.8849 29.189 70.2673 30.4776 68.1105 31.4666C65.9536 32.4255 63.2426 32.905 59.9774 32.905ZM91.1271 32.905C88.6108 32.905 86.2742 32.5155 84.1173 31.7363C81.9904 30.9271 80.1332 29.7884 78.5455 28.3199C76.9878 26.8515 75.7746 25.1133 74.9058 23.1055C74.0371 21.0976 73.6027 18.8799 73.6027 16.4525C73.6027 14.0251 74.0371 11.8075 74.9058 9.79959C75.7746 7.79172 76.9878 6.05357 78.5455 4.58513C80.1332 3.11669 81.9904 1.99288 84.1173 1.21371C86.2742 0.40457 88.6108 0 91.1271 0C94.2126 0 96.9386 0.539427 99.3051 1.61828C101.702 2.69713 103.679 4.25548 105.236 6.29331L98.5412 12.272C97.6126 11.1032 96.5791 10.2042 95.4408 9.57483C94.3324 8.91553 93.0742 8.58588 91.6663 8.58588C90.5579 8.58588 89.5544 8.76569 88.6557 9.12531C87.757 9.48492 86.9781 10.0094 86.3191 10.6986C85.69 11.3879 85.1958 12.227 84.8363 13.216C84.4768 14.1749 84.2971 15.2538 84.2971 16.4525C84.2971 17.6512 84.4768 18.7451 84.8363 19.734C85.1958 20.693 85.69 21.5171 86.3191 22.2064C86.9781 22.8957 87.757 23.4201 88.6557 23.7797C89.5544 24.1394 90.5579 24.3192 91.6663 24.3192C93.0742 24.3192 94.3324 24.0045 95.4408 23.3752C96.5791 22.7159 97.6126 21.8018 98.5412 20.6331L105.236 26.6117C103.679 28.6196 101.702 30.1779 99.3051 31.2868C96.9386 32.3656 94.2126 32.905 91.1271 32.905ZM121.21 32.905C118.664 32.905 116.297 32.5005 114.11 31.6913C111.954 30.8822 110.081 29.7434 108.494 28.275C106.906 26.7766 105.663 25.0234 104.764 23.0155C103.895 21.0077 103.461 18.82 103.461 16.4525C103.461 14.0551 103.895 11.8674 104.764 9.88949C105.663 7.88163 106.906 6.14347 108.494 4.67503C110.081 3.17662 111.954 2.02285 114.11 1.21371C116.297 0.40457 118.664 0 121.21 0C123.786 0 126.153 0.40457 128.31 1.21371C130.467 2.02285 132.339 3.17662 133.926 4.67503C135.514 6.14347 136.742 7.88163 137.611 9.88949C138.51 11.8674 138.959 14.0551 138.959 16.4525C138.959 18.82 138.51 21.0077 137.611 23.0155C136.742 25.0234 135.514 26.7766 133.926 28.275C132.339 29.7434 130.467 30.8822 128.31 31.6913C126.153 32.5005 123.786 32.905 121.21 32.905ZM121.21 24.3192C122.199 24.3192 123.112 24.1394 123.951 23.7797C124.82 23.4201 125.569 22.9107 126.198 22.2514C126.857 21.5621 127.366 20.738 127.726 19.779C128.085 18.79 128.265 17.6812 128.265 16.4525C128.265 15.2238 128.085 14.13 127.726 13.171C127.366 12.1821 126.857 11.3579 126.198 10.6986C125.569 10.0094 124.82 9.48492 123.951 9.12531C123.112 8.76569 122.199 8.58588 121.21 8.58588C120.222 8.58588 119.293 8.76569 118.424 9.12531C117.585 9.48492 116.836 10.0094 116.177 10.6986C115.548 11.3579 115.054 12.1821 114.695 13.171C114.335 14.13 114.155 15.2238 114.155 16.4525C114.155 17.6812 114.335 18.79 114.695 19.779C115.054 20.738 115.548 21.5621 116.177 22.2514C116.836 22.9107 117.585 23.4201 118.424 23.7797C119.293 24.1394 120.222 24.3192 121.21 24.3192ZM148.676 32.1858L135.375 0.719236H146.788L157.618 27.286H150.832L161.976 0.719236H172.401L159.1 32.1858H148.676ZM180.241 12.4068H194.261V20.0487H180.241V12.4068ZM180.96 24.1843H196.687V32.1858H170.536V0.719236H196.103V8.72073H180.96V24.1843ZM197.849 32.1858V0.719236H212.992C215.928 0.719236 218.459 1.19873 220.586 2.15771C222.743 3.11669 224.405 4.49522 225.574 6.29331C226.742 8.06143 227.326 10.1592 227.326 12.5866C227.326 15.014 226.742 17.1118 225.574 18.8799C224.405 20.6181 222.743 21.9517 220.586 22.8807C218.459 23.8097 215.928 24.2742 212.992 24.2742H203.736L208.454 19.9138V32.1858H197.849ZM216.677 32.1858L208.948 20.723H220.181L228 32.1858H216.677ZM208.454 21.0826L203.736 16.2727H212.318C213.786 16.2727 214.864 15.9431 215.553 15.2838C216.272 14.6245 216.632 13.7254 216.632 12.5866C216.632 11.4478 216.272 10.5488 215.553 9.88949C214.864 9.23019 213.786 8.90054 212.318 8.90054H203.736L208.454 4.09065V21.0826ZM10.964 55.9543H24.9834V63.5962H10.964V55.9543ZM11.6829 67.7318H27.4099V75.7333H1.25816V44.2667H26.8257V52.2682H11.6829V67.7318ZM38.0182 75.7333L24.7177 44.2667H36.131L46.96 70.8335H40.1751L51.3186 44.2667H61.7434L48.4428 75.7333H38.0182ZM69.5839 55.9543H83.6034V63.5962H69.5839V55.9543ZM70.3029 67.7318H86.0298V75.7333H59.8781V44.2667H85.4457V52.2682H70.3029V67.7318ZM87.1911 75.7333V44.2667H95.9088L111.905 63.4164H107.861V44.2667H118.196V75.7333H109.479L93.4819 56.5836H97.526V75.7333H87.1911ZM127.215 75.7333V52.493H118.003V44.2667H147.031V52.493H137.819V75.7333H127.215ZM158.592 76.4525C155.956 76.4525 153.41 76.1528 150.953 75.5535C148.497 74.9541 146.475 74.1749 144.887 73.216L148.302 65.4842C149.8 66.3532 151.463 67.0575 153.29 67.5969C155.147 68.1064 156.944 68.3611 158.682 68.3611C159.7 68.3611 160.494 68.3012 161.063 68.1813C161.663 68.0315 162.097 67.8367 162.367 67.5969C162.636 67.3272 162.771 67.0126 162.771 66.6529C162.771 66.0835 162.456 65.634 161.827 65.3044C161.198 64.9747 160.359 64.705 159.311 64.4952C158.293 64.2555 157.169 64.0157 155.941 63.776C154.713 63.5063 153.47 63.1616 152.211 62.7421C150.983 62.3225 149.845 61.7681 148.796 61.0789C147.778 60.3896 146.954 59.4905 146.325 58.3817C145.696 57.2429 145.381 55.8344 145.381 54.1562C145.381 52.2083 145.921 50.4402 146.999 48.8518C148.107 47.2336 149.74 45.9449 151.897 44.986C154.084 44.027 156.795 43.5475 160.03 43.5475C162.157 43.5475 164.254 43.7722 166.321 44.2218C168.388 44.6713 170.245 45.3606 171.893 46.2896L168.702 53.9764C167.145 53.1972 165.632 52.6129 164.164 52.2233C162.726 51.8337 161.318 51.6389 159.94 51.6389C158.922 51.6389 158.113 51.7288 157.514 51.9086C156.915 52.0884 156.48 52.3281 156.211 52.6278C155.971 52.9275 155.851 53.2572 155.851 53.6168C155.851 54.1562 156.166 54.5907 156.795 54.9204C157.424 55.2201 158.248 55.4748 159.266 55.6846C160.315 55.8944 161.453 56.1191 162.681 56.3589C163.939 56.5986 165.182 56.9283 166.411 57.3478C167.639 57.7674 168.762 58.3218 169.781 59.011C170.829 59.7003 171.668 60.5994 172.297 61.7082C172.926 62.817 173.241 64.1955 173.241 65.8438C173.241 67.7617 172.686 69.5299 171.578 71.1482C170.5 72.7365 168.882 74.0251 166.725 75.0141C164.568 75.973 161.857 76.4525 158.592 76.4525ZM184.026 75.7333V44.2667H194.631V75.7333H184.026ZM196.815 75.7333V44.2667H205.532L221.529 63.4164H217.485V44.2667H227.82V75.7333H219.103L203.106 56.5836H207.15V75.7333H196.815ZM17.5693 120C15.023 120 12.6715 119.61 10.5146 118.831C8.38772 118.022 6.53044 116.883 4.94276 115.415C3.38504 113.946 2.17182 112.208 1.30309 110.2C0.434364 108.193 0 105.975 0 103.547C0 101.12 0.434364 98.9024 1.30309 96.8946C2.17182 94.8867 3.40002 93.1485 4.9877 91.6801C6.57538 90.2116 8.44763 89.0879 10.6045 88.3087C12.7913 87.4995 15.1878 87.095 17.794 87.095C20.9094 87.095 23.6803 87.6194 26.1068 88.6683C28.5632 89.7172 30.5852 91.2156 32.1729 93.1635L25.3878 99.1422C24.3993 98.0034 23.3209 97.1493 22.1526 96.5799C21.0142 95.9805 19.7411 95.6808 18.3332 95.6808C17.1649 95.6808 16.1014 95.8606 15.1428 96.2203C14.2142 96.5799 13.4204 97.1043 12.7613 97.7936C12.1023 98.4829 11.593 99.307 11.2336 100.266C10.8741 101.225 10.6943 102.319 10.6943 103.547C10.6943 104.716 10.8741 105.795 11.2336 106.784C11.593 107.743 12.1023 108.567 12.7613 109.256C13.4204 109.946 14.1992 110.485 15.0979 110.875C16.0265 111.234 17.06 111.414 18.1984 111.414C19.3966 111.414 20.5649 111.219 21.7032 110.83C22.8416 110.41 24.0548 109.706 25.3429 108.717L31.2742 115.999C29.357 117.288 27.1702 118.277 24.7138 118.966C22.2574 119.655 19.8759 120 17.5693 120ZM22.0627 114.651V102.693H31.2742V115.999L22.0627 114.651ZM42.5777 99.5018H56.597V107.144H42.5777V99.5018ZM43.2966 111.279H59.0234V119.281H32.8719V87.8142H58.4393V95.8157H43.2966V111.279ZM76.676 120C74.1298 120 71.7632 119.595 69.5764 118.786C67.4196 117.977 65.5473 116.838 63.9597 115.37C62.372 113.872 61.1288 112.118 60.2301 110.111C59.3614 108.103 58.927 105.915 58.927 103.547C58.927 101.15 59.3614 98.9623 60.2301 96.9845C61.1288 94.9766 62.372 93.2384 63.9597 91.77C65.5473 90.2716 67.4196 89.1178 69.5764 88.3087C71.7632 87.4995 74.1298 87.095 76.676 87.095C79.2523 87.095 81.6188 87.4995 83.7757 88.3087C85.9325 89.1178 87.8047 90.2716 89.3924 91.77C90.9801 93.2384 92.2083 94.9766 93.077 96.9845C93.9757 98.9623 94.4251 101.15 94.4251 103.547C94.4251 105.915 93.9757 108.103 93.077 110.111C92.2083 112.118 90.9801 113.872 89.3924 115.37C87.8047 116.838 85.9325 117.977 83.7757 118.786C81.6188 119.595 79.2523 120 76.676 120ZM76.676 111.414C77.6646 111.414 78.5783 111.234 79.417 110.875C80.2858 110.515 81.0347 110.006 81.6637 109.346C82.3228 108.657 82.832 107.833 83.1915 106.874C83.551 105.885 83.7307 104.776 83.7307 103.547C83.7307 102.319 83.551 101.225 83.1915 100.266C82.832 99.277 82.3228 98.4529 81.6637 97.7936C81.0347 97.1043 80.2858 96.5799 79.417 96.2203C78.5783 95.8606 77.6646 95.6808 76.676 95.6808C75.6875 95.6808 74.7589 95.8606 73.8901 96.2203C73.0513 96.5799 72.3024 97.1043 71.6434 97.7936C71.0143 98.4529 70.5201 99.277 70.1606 100.266C69.8011 101.225 69.6214 102.319 69.6214 103.547C69.6214 104.776 69.8011 105.885 70.1606 106.874C70.5201 107.833 71.0143 108.657 71.6434 109.346C72.3024 110.006 73.0513 110.515 73.8901 110.875C74.7589 111.234 75.6875 111.414 76.676 111.414ZM95.3532 119.281V87.8142H110.496C113.432 87.8142 115.963 88.2937 118.09 89.2527C120.247 90.2117 121.909 91.5902 123.078 93.3883C124.246 95.1564 124.83 97.2542 124.83 99.6816C124.83 102.109 124.246 104.207 123.078 105.975C121.909 107.713 120.247 109.047 118.09 109.976C115.963 110.905 113.432 111.369 110.496 111.369H101.24L105.958 107.009V119.281H95.3532ZM114.181 119.281L106.452 107.818H117.686L125.504 119.281H114.181ZM105.958 108.178L101.24 103.368H109.822C111.29 103.368 112.368 103.038 113.057 102.379C113.776 101.719 114.136 100.82 114.136 99.6816C114.136 98.5428 113.776 97.6438 113.057 96.9845C112.368 96.3251 111.29 95.9955 109.822 95.9955H101.24L105.958 91.1856V108.178ZM142.225 120C139.678 120 137.327 119.61 135.17 118.831C133.043 118.022 131.186 116.883 129.598 115.415C128.041 113.946 126.827 112.208 125.959 110.2C125.09 108.193 124.656 105.975 124.656 103.547C124.656 101.12 125.09 98.9024 125.959 96.8946C126.827 94.8867 128.056 93.1485 129.643 91.6801C131.231 90.2116 133.103 89.0879 135.26 88.3087C137.447 87.4995 139.843 87.095 142.449 87.095C145.565 87.095 148.336 87.6194 150.762 88.6683C153.219 89.7172 155.241 91.2156 156.828 93.1635L150.043 99.1422C149.055 98.0034 147.976 97.1493 146.808 96.5799C145.67 95.9805 144.397 95.6808 142.989 95.6808C141.82 95.6808 140.757 95.8606 139.798 96.2203C138.87 96.5799 138.076 97.1043 137.417 97.7936C136.758 98.4829 136.249 99.307 135.889 100.266C135.53 101.225 135.35 102.319 135.35 103.547C135.35 104.716 135.53 105.795 135.889 106.784C136.249 107.743 136.758 108.567 137.417 109.256C138.076 109.946 138.855 110.485 139.753 110.875C140.682 111.234 141.716 111.414 142.854 111.414C144.052 111.414 145.22 111.219 146.359 110.83C147.497 110.41 148.71 109.706 149.998 108.717L155.93 115.999C154.013 117.288 151.826 118.277 149.369 118.966C146.913 119.655 144.531 120 142.225 120ZM146.718 114.651V102.693H155.93V115.999L146.718 114.651ZM157.527 119.281V87.8142H168.132V119.281H157.527ZM166.901 119.281L180.651 87.8142H191.076L204.826 119.281H193.862L183.707 92.8488H187.84L177.685 119.281H166.901ZM175.079 113.797L177.775 106.155H192.244L194.94 113.797H175.079Z" fill="url(#paint0_linear_14_12)"/>
<defs>
<linearGradient id="paint0_linear_14_12" x1="114" y1="0" x2="114" y2="120" gradientUnits="userSpaceOnUse">
<stop stop-color="#CA703F"/>
<stop offset="1" stop-color="#5F0BC1"/>
</linearGradient>
</defs>
</svg>
